<svg xmlns="http://www.w3.org/2000/svg" xmlns:xlink="http://www.w3.org/1999/xlink" width="918" zoomAndPan="magnify" viewBox="0 0 688.5 500.999987" height="668" preserveAspectRatio="xMidYMid meet" version="1.0"><path fill="#f2f2f2" d="M 638.59375 499.390625 L 49.78125 499.390625 C 26.777344 499.390625 7.523438 481.183594 7.523438 457.671875 L 7.523438 50.199219 C 7.523438 48.8125 7.59375 47.433594 7.734375 46.058594 C 7.871094 44.683594 8.078125 43.316406 8.347656 41.960938 C 8.621094 40.605469 8.957031 39.265625 9.359375 37.941406 C 9.765625 36.617188 10.230469 35.320312 10.761719 34.042969 C 11.292969 32.765625 11.886719 31.515625 12.539062 30.296875 C 13.191406 29.078125 13.902344 27.894531 14.671875 26.746094 C 15.441406 25.59375 16.265625 24.484375 17.140625 23.417969 C 18.019531 22.347656 18.949219 21.324219 19.925781 20.347656 C 20.90625 19.371094 21.929688 18.445312 22.996094 17.566406 C 24.066406 16.6875 25.175781 15.867188 26.328125 15.097656 C 27.476562 14.328125 28.660156 13.621094 29.878906 12.96875 C 31.101562 12.316406 32.347656 11.726562 33.625 11.195312 C 34.902344 10.664062 36.203125 10.199219 37.527344 9.796875 C 38.847656 9.394531 40.1875 9.058594 41.546875 8.789062 C 42.902344 8.519531 44.265625 8.3125 45.644531 8.175781 C 47.019531 8.039062 48.398438 7.972656 49.78125 7.96875 L 638.59375 7.96875 C 661.59375 7.96875 680.851562 26.914062 680.851562 50.238281 L 680.851562 457.144531 C 680.324219 481.226562 661.59375 499.414062 638.59375 499.414062 Z M 638.59375 499.390625 " fill-opacity="1" fill-rule="nonzero"/><path fill="#221f1f" d="M 91.703125 499.390625 L 343.617188 314.992188 L 345.21875 304.296875 L 85.390625 117.601562 L 84.863281 490.296875 Z M 91.703125 499.390625 " fill-opacity="0.098" fill-rule="nonzero"/><path fill="#d44c3d" d="M 49.78125 499.390625 C 26.464844 499.390625 7.523438 481.183594 7.523438 457.671875 L 7.523438 49.648438 C 7.523438 26.117188 26.464844 21.863281 49.78125 21.863281 C 73.101562 21.863281 92.039062 26.707031 92.039062 49.648438 L 92.039062 499.371094 Z M 49.78125 499.390625 " fill-opacity="1" fill-rule="nonzero"/><path fill="#d44c3d" d="M 49.78125 28.261719 C 79.730469 28.261719 85.621094 37.355469 85.621094 49.648438 L 85.621094 493.476562 L 49.78125 493.476562 C 30 493.476562 13.941406 477.4375 13.941406 457.628906 L 13.941406 49.648438 C 13.414062 37.019531 19.832031 28.261719 49.78125 28.261719 Z M 49.78125 22.367188 C 26.464844 22.390625 7.523438 27.191406 7.523438 49.648438 L 7.523438 457.101562 C 7.503906 458.492188 7.550781 459.878906 7.671875 461.265625 C 7.789062 462.648438 7.976562 464.023438 8.234375 465.390625 C 8.492188 466.757812 8.816406 468.105469 9.207031 469.4375 C 9.597656 470.773438 10.054688 472.082031 10.578125 473.371094 C 11.101562 474.660156 11.683594 475.917969 12.332031 477.148438 C 12.980469 478.375 13.691406 479.570312 14.457031 480.726562 C 15.226562 481.886719 16.050781 483.003906 16.929688 484.078125 C 17.808594 485.15625 18.738281 486.183594 19.722656 487.167969 C 20.707031 488.152344 21.734375 489.082031 22.808594 489.960938 C 23.886719 490.839844 25.003906 491.664062 26.160156 492.433594 C 27.320312 493.203125 28.511719 493.910156 29.742188 494.558594 C 30.96875 495.207031 32.230469 495.792969 33.515625 496.316406 C 34.804688 496.839844 36.113281 497.296875 37.445312 497.6875 C 38.78125 498.078125 40.128906 498.402344 41.496094 498.660156 C 42.859375 498.914062 44.234375 499.105469 45.621094 499.222656 C 47.003906 499.339844 48.390625 499.390625 49.78125 499.371094 L 92.039062 499.371094 L 92.039062 49.648438 C 91.703125 26.664062 73.308594 22.390625 49.78125 22.390625 Z M 638.59375 28.261719 C 665.867188 28.261719 674.433594 33.609375 674.433594 48.597656 L 674.433594 458.195312 C 674.433594 477.984375 658.394531 494.046875 638.59375 494.046875 L 602.75 494.046875 L 602.75 48.597656 C 602.226562 33.082031 611.316406 28.261719 638.59375 28.261719 Z M 638.59375 22.367188 C 615.0625 22.367188 596.332031 25.570312 596.332031 48.578125 L 596.332031 499.898438 L 638.59375 499.898438 C 662.121094 499.898438 680.851562 480.953125 680.851562 457.628906 L 680.851562 48.050781 C 680.324219 25.042969 661.59375 22.367188 638.59375 22.367188 Z M 638.59375 22.367188 " fill-opacity="1" fill-rule="nonzero"/><path fill="#d44c3d" d="M 638.59375 499.390625 L 596.332031 499.390625 L 596.332031 48.597656 C 596.332031 25.0625 615.273438 22.390625 638.59375 22.390625 C 661.910156 22.390625 680.851562 25.589844 680.851562 48.597656 L 680.851562 458.195312 C 680.824219 459.558594 680.726562 460.917969 680.566406 462.273438 C 680.40625 463.628906 680.179688 464.96875 679.886719 466.300781 C 679.59375 467.632812 679.238281 468.949219 678.820312 470.246094 C 678.398438 471.542969 677.917969 472.816406 677.375 474.070312 C 676.832031 475.320312 676.230469 476.542969 675.566406 477.734375 C 674.90625 478.925781 674.1875 480.082031 673.414062 481.203125 C 672.636719 482.328125 671.8125 483.410156 670.933594 484.453125 C 670.050781 485.492188 669.125 486.492188 668.148438 487.441406 C 667.171875 488.394531 666.152344 489.296875 665.085938 490.148438 C 664.023438 491 662.921875 491.800781 661.777344 492.546875 C 660.636719 493.292969 659.460938 493.980469 658.253906 494.609375 C 657.046875 495.242188 655.808594 495.8125 654.546875 496.324219 C 653.28125 496.835938 651.996094 497.285156 650.6875 497.671875 C 649.378906 498.054688 648.058594 498.378906 646.71875 498.636719 C 645.378906 498.894531 644.03125 499.085938 642.671875 499.210938 C 641.316406 499.335938 639.957031 499.398438 638.59375 499.390625 Z M 638.59375 499.390625 " fill-opacity="1" fill-rule="nonzero"/><path fill="#221f1f" d="M 458.359375 499.390625 L 11.269531 67.542969 L 34.796875 77.164062 L 346.269531 301.285156 L 680.832031 55.542969 L 680.832031 458.195312 C 680.824219 459.574219 680.753906 460.945312 680.609375 462.316406 C 680.46875 463.683594 680.261719 465.042969 679.988281 466.390625 C 679.714844 467.742188 679.375 469.074219 678.96875 470.386719 C 678.5625 471.703125 678.089844 472.996094 677.558594 474.265625 C 677.023438 475.53125 676.429688 476.773438 675.773438 477.980469 C 675.121094 479.191406 674.40625 480.367188 673.636719 481.507812 C 672.863281 482.648438 672.039062 483.746094 671.160156 484.804688 C 670.28125 485.863281 669.351562 486.875 668.371094 487.84375 C 667.390625 488.808594 666.367188 489.726562 665.296875 490.59375 C 664.226562 491.457031 663.117188 492.269531 661.96875 493.027344 C 660.820312 493.78125 659.636719 494.480469 658.417969 495.121094 C 657.199219 495.761719 655.949219 496.339844 654.675781 496.855469 C 653.398438 497.371094 652.101562 497.824219 650.78125 498.214844 C 649.460938 498.601562 648.125 498.925781 646.773438 499.183594 C 645.421875 499.441406 644.0625 499.628906 642.691406 499.753906 C 641.320312 499.875 639.945312 499.929688 638.570312 499.917969 Z M 458.359375 499.390625 " fill-opacity="0.0784" fill-rule="nonzero"/><path fill="#d44c3d" d="M 343.40625 315.515625 L 25.707031 84.972656 C 6.765625 71.078125 1.628906 44.34375 15.539062 25.609375 C 29.453125 6.875 56.160156 2.601562 75.4375 16.515625 L 343.914062 211.757812 L 613.988281 13.863281 C 632.929688 -0.0273438 658.921875 4.246094 672.8125 23.484375 C 686.703125 42.429688 682.429688 68.425781 663.195312 82.320312 Z M 343.40625 315.515625 " fill-opacity="1" fill-rule="nonzero"/><path fill="#d44c3d" d="M 638.59375 12.222656 C 649.832031 12.222656 661.046875 17.570312 668.015625 27.210938 C 679.253906 43.25 676.011719 65.734375 660.015625 77.730469 L 343.40625 308.042969 L 29.453125 80.171875 C 13.414062 68.386719 9.121094 45.378906 20.148438 29.652344 C 26.566406 20.03125 37.828125 14.136719 50.097656 14.136719 C 58.09375 14.136719 65.609375 16.285156 71.480469 21.085938 L 339.386719 215.800781 L 343.132812 217.949219 L 346.878906 215.800781 L 616.683594 18.074219 C 623.628906 14.328125 630.574219 12.179688 638.613281 12.179688 Z M 638.59375 5.800781 C 630.027344 5.800781 620.914062 7.949219 613.96875 13.800781 L 343.914062 211.738281 L 74.910156 15.96875 C 67.964844 10.621094 58.875 7.96875 49.78125 7.96875 C 36.417969 8.496094 23.054688 14.390625 15.015625 25.652344 C 1.648438 44.597656 7.015625 70.59375 25.707031 84.488281 L 343.40625 315.515625 L 663.195312 82.277344 C 664.304688 81.464844 665.375 80.597656 666.402344 79.683594 C 667.429688 78.765625 668.410156 77.800781 669.34375 76.785156 C 670.277344 75.773438 671.15625 74.71875 671.988281 73.621094 C 672.820312 72.519531 673.59375 71.382812 674.316406 70.210938 C 675.035156 69.035156 675.699219 67.832031 676.300781 66.59375 C 676.902344 65.355469 677.445312 64.089844 677.925781 62.796875 C 678.40625 61.507812 678.824219 60.195312 679.175781 58.863281 C 679.527344 57.535156 679.816406 56.1875 680.039062 54.828125 C 680.261719 53.46875 680.417969 52.101562 680.503906 50.726562 C 680.59375 49.351562 680.617188 47.976562 680.574219 46.601562 C 680.527344 45.222656 680.417969 43.851562 680.242188 42.488281 C 680.0625 41.121094 679.820312 39.765625 679.511719 38.425781 C 679.203125 37.082031 678.828125 35.757812 678.390625 34.453125 C 677.953125 33.144531 677.453125 31.863281 676.890625 30.605469 C 676.328125 29.351562 675.707031 28.121094 675.027344 26.925781 C 674.34375 25.730469 673.605469 24.566406 672.8125 23.441406 C 664.246094 12.203125 651.429688 5.761719 638.59375 5.761719 Z M 638.59375 5.800781 " fill-opacity="1" fill-rule="nonzero"/></svg>