<svg xmlns="http://www.w3.org/2000/svg" xmlns:xlink="http://www.w3.org/1999/xlink" width="918" zoomAndPan="magnify" viewBox="0 0 688.5 688.499978" height="918" preserveAspectRatio="xMidYMid meet" version="1.0"><defs><g/><clipPath id="debc80c838"><path d="M 467 467 L 535 467 L 535 535 L 467 535 Z M 467 467 " clip-rule="nonzero"/></clipPath><clipPath id="b75914d19c"><path d="M 0.00390625 344.246094 L 344.1875 0.0585938 L 688.371094 344.246094 L 344.1875 688.429688 Z M 0.00390625 344.246094 " clip-rule="nonzero"/></clipPath><clipPath id="c15eb838b1"><path d="M 0.00390625 344.246094 L 344.1875 0.0585938 L 688.371094 344.246094 L 344.1875 688.429688 Z M 0.00390625 344.246094 " clip-rule="nonzero"/></clipPath><clipPath id="c235232eef"><path d="M 481 481 L 548 481 L 548 548 L 481 548 Z M 481 481 " clip-rule="nonzero"/></clipPath><clipPath id="ea3aa24f93"><path d="M 0.00390625 344.246094 L 344.1875 0.0585938 L 688.371094 344.246094 L 344.1875 688.429688 Z M 0.00390625 344.246094 " clip-rule="nonzero"/></clipPath><clipPath id="aea53d12d7"><path d="M 0.00390625 344.246094 L 344.1875 0.0585938 L 688.371094 344.246094 L 344.1875 688.429688 Z M 0.00390625 344.246094 " clip-rule="nonzero"/></clipPath><clipPath id="41cefb2b7e"><path d="M 203 530 L 485 530 L 485 663 L 203 663 Z M 203 530 " clip-rule="nonzero"/></clipPath><clipPath id="ee63083063"><path d="M 0.00390625 344.246094 L 344.1875 0.0585938 L 688.371094 344.246094 L 344.1875 688.429688 Z M 0.00390625 344.246094 " clip-rule="nonzero"/></clipPath><clipPath id="c42b98d5fc"><path d="M 0.00390625 344.246094 L 344.1875 0.0585938 L 688.371094 344.246094 L 344.1875 688.429688 Z M 0.00390625 344.246094 " clip-rule="nonzero"/></clipPath><clipPath id="1d849ef727"><path d="M 153 467 L 221 467 L 221 535 L 153 535 Z M 153 467 " clip-rule="nonzero"/></clipPath><clipPath id="326165c3d7"><path d="M 0.00390625 344.246094 L 344.1875 0.0585938 L 688.371094 344.246094 L 344.1875 688.429688 Z M 0.00390625 344.246094 " clip-rule="nonzero"/></clipPath><clipPath id="cd01022200"><path d="M 0.00390625 344.246094 L 344.1875 0.0585938 L 688.371094 344.246094 L 344.1875 688.429688 Z M 0.00390625 344.246094 " clip-rule="nonzero"/></clipPath><clipPath id="581f8a3fa1"><path d="M 140 481 L 208 481 L 208 548 L 140 548 Z M 140 481 " clip-rule="nonzero"/></clipPath><clipPath id="7d8e19a9b4"><path d="M 0.00390625 344.246094 L 344.1875 0.0585938 L 688.371094 344.246094 L 344.1875 688.429688 Z M 0.00390625 344.246094 " clip-rule="nonzero"/></clipPath><clipPath id="2a35492d4a"><path d="M 0.00390625 344.246094 L 344.1875 0.0585938 L 688.371094 344.246094 L 344.1875 688.429688 Z M 0.00390625 344.246094 " clip-rule="nonzero"/></clipPath><clipPath id="54333db7f3"><path d="M 530 203 L 662 203 L 662 485 L 530 485 Z M 530 203 " clip-rule="nonzero"/></clipPath><clipPath id="9f5e78959a"><path d="M 0.00390625 344.246094 L 344.1875 0.0585938 L 688.371094 344.246094 L 344.1875 688.429688 Z M 0.00390625 344.246094 " clip-rule="nonzero"/></clipPath><clipPath id="54ddd146de"><path d="M 0.00390625 344.246094 L 344.1875 0.0585938 L 688.371094 344.246094 L 344.1875 688.429688 Z M 0.00390625 344.246094 " clip-rule="nonzero"/></clipPath><clipPath id="2beb2aeb1b"><path d="M 26 203 L 158 203 L 158 485 L 26 485 Z M 26 203 " clip-rule="nonzero"/></clipPath><clipPath id="24268a838d"><path d="M 0.00390625 344.246094 L 344.1875 0.0585938 L 688.371094 344.246094 L 344.1875 688.429688 Z M 0.00390625 344.246094 " clip-rule="nonzero"/></clipPath><clipPath id="0df7aa7cf4"><path d="M 0.00390625 344.246094 L 344.1875 0.0585938 L 688.371094 344.246094 L 344.1875 688.429688 Z M 0.00390625 344.246094 " clip-rule="nonzero"/></clipPath><clipPath id="51dcf7e2ef"><path d="M 203 26 L 485 26 L 485 158 L 203 158 Z M 203 26 " clip-rule="nonzero"/></clipPath><clipPath id="2ea3264bdc"><path d="M 0.00390625 344.246094 L 344.1875 0.0585938 L 688.371094 344.246094 L 344.1875 688.429688 Z M 0.00390625 344.246094 " clip-rule="nonzero"/></clipPath><clipPath id="820c41c92d"><path d="M 0.00390625 344.246094 L 344.1875 0.0585938 L 688.371094 344.246094 L 344.1875 688.429688 Z M 0.00390625 344.246094 " clip-rule="nonzero"/></clipPath><clipPath id="1945cba211"><path d="M 481 140 L 548 140 L 548 208 L 481 208 Z M 481 140 " clip-rule="nonzero"/></clipPath><clipPath id="e599f581a3"><path d="M 0.00390625 344.246094 L 344.1875 0.0585938 L 688.371094 344.246094 L 344.1875 688.429688 Z M 0.00390625 344.246094 " clip-rule="nonzero"/></clipPath><clipPath id="6b4da4bd6b"><path d="M 0.00390625 344.246094 L 344.1875 0.0585938 L 688.371094 344.246094 L 344.1875 688.429688 Z M 0.00390625 344.246094 " clip-rule="nonzero"/></clipPath><clipPath id="d967286489"><path d="M 467 153 L 535 153 L 535 221 L 467 221 Z M 467 153 " clip-rule="nonzero"/></clipPath><clipPath id="f5bdffeda6"><path d="M 0.00390625 344.246094 L 344.1875 0.0585938 L 688.371094 344.246094 L 344.1875 688.429688 Z M 0.00390625 344.246094 " clip-rule="nonzero"/></clipPath><clipPath id="c413e2ab37"><path d="M 0.00390625 344.246094 L 344.1875 0.0585938 L 688.371094 344.246094 L 344.1875 688.429688 Z M 0.00390625 344.246094 " clip-rule="nonzero"/></clipPath><clipPath id="1781634e13"><path d="M 153 153 L 221 153 L 221 221 L 153 221 Z M 153 153 " clip-rule="nonzero"/></clipPath><clipPath id="94dcd5a5c4"><path d="M 0.00390625 344.246094 L 344.1875 0.0585938 L 688.371094 344.246094 L 344.1875 688.429688 Z M 0.00390625 344.246094 " clip-rule="nonzero"/></clipPath><clipPath id="002a7ad576"><path d="M 0.00390625 344.246094 L 344.1875 0.0585938 L 688.371094 344.246094 L 344.1875 688.429688 Z M 0.00390625 344.246094 " clip-rule="nonzero"/></clipPath><clipPath id="599fdeebb9"><path d="M 140 140 L 208 140 L 208 208 L 140 208 Z M 140 140 " clip-rule="nonzero"/></clipPath><clipPath id="1ddc349cf9"><path d="M 0.00390625 344.246094 L 344.1875 0.0585938 L 688.371094 344.246094 L 344.1875 688.429688 Z M 0.00390625 344.246094 " clip-rule="nonzero"/></clipPath><clipPath id="52e50dcd52"><path d="M 0.00390625 344.246094 L 344.1875 0.0585938 L 688.371094 344.246094 L 344.1875 688.429688 Z M 0.00390625 344.246094 " clip-rule="nonzero"/></clipPath></defs><g clip-path="url(#debc80c838)"><g clip-path="url(#b75914d19c)"><g clip-path="url(#c15eb838b1)"><path fill="#ae8330" d="M 467.917969 530.78125 L 530.722656 467.976562 L 534.492188 471.742188 L 471.683594 534.550781 Z M 467.917969 530.78125 " fill-opacity="1" fill-rule="nonzero"/></g></g></g><g clip-path="url(#c235232eef)"><g clip-path="url(#ea3aa24f93)"><g clip-path="url(#aea53d12d7)"><path fill="#ae8330" d="M 481.105469 543.972656 L 543.914062 481.164062 L 547.683594 484.933594 L 484.875 547.738281 Z M 481.105469 543.972656 " fill-opacity="1" fill-rule="nonzero"/></g></g></g><g clip-path="url(#41cefb2b7e)"><g clip-path="url(#ee63083063)"><g clip-path="url(#c42b98d5fc)"><path fill="#ae8330" d="M 468.671875 556.40625 L 449.828125 556.40625 L 471.683594 534.550781 L 467.917969 530.78125 L 442.292969 556.40625 L 246.082031 556.40625 L 220.457031 530.78125 L 216.6875 534.550781 L 238.542969 556.40625 L 219.703125 556.40625 L 207.265625 543.972656 L 203.5 547.738281 L 217.441406 561.683594 L 243.820312 561.683594 L 344.1875 662.050781 L 444.550781 561.683594 L 470.933594 561.683594 L 484.875 547.738281 L 481.105469 543.972656 Z M 344.1875 654.511719 L 251.355469 561.683594 L 437.015625 561.683594 Z M 344.1875 654.511719 " fill-opacity="1" fill-rule="nonzero"/></g></g></g><g clip-path="url(#1d849ef727)"><g clip-path="url(#326165c3d7)"><g clip-path="url(#cd01022200)"><path fill="#ae8330" d="M 153.878906 471.742188 L 157.648438 467.976562 L 220.457031 530.78125 L 216.6875 534.550781 Z M 153.878906 471.742188 " fill-opacity="1" fill-rule="nonzero"/></g></g></g><g clip-path="url(#581f8a3fa1)"><g clip-path="url(#7d8e19a9b4)"><g clip-path="url(#2a35492d4a)"><path fill="#ae8330" d="M 140.691406 484.933594 L 144.460938 481.164062 L 207.265625 543.972656 L 203.5 547.738281 Z M 140.691406 484.933594 " fill-opacity="1" fill-rule="nonzero"/></g></g></g><g clip-path="url(#54333db7f3)"><g clip-path="url(#9f5e78959a)"><g clip-path="url(#54ddd146de)"><path fill="#ae8330" d="M 556.351562 219.761719 L 556.351562 238.601562 L 534.492188 216.746094 L 530.722656 220.515625 L 556.351562 246.140625 L 556.351562 442.347656 L 530.722656 467.976562 L 534.492188 471.742188 L 556.351562 449.886719 L 556.351562 468.730469 L 543.914062 481.164062 L 547.683594 484.933594 L 561.625 470.988281 L 561.625 444.609375 L 661.992188 344.246094 L 561.625 243.878906 L 561.625 217.5 L 547.683594 203.554688 L 543.914062 207.324219 Z M 654.453125 344.246094 L 561.625 437.074219 L 561.625 251.414062 Z M 654.453125 344.246094 " fill-opacity="1" fill-rule="nonzero"/></g></g></g><g clip-path="url(#2beb2aeb1b)"><g clip-path="url(#24268a838d)"><g clip-path="url(#0df7aa7cf4)"><path fill="#ae8330" d="M 132.023438 468.730469 L 132.023438 449.886719 L 153.878906 471.742188 L 157.648438 467.976562 L 132.023438 442.347656 L 132.023438 246.140625 L 157.648438 220.515625 L 153.878906 216.746094 L 132.023438 238.601562 L 132.023438 219.761719 L 144.460938 207.324219 L 140.691406 203.554688 L 126.746094 217.5 L 126.746094 243.878906 L 26.382812 344.246094 L 126.746094 444.609375 L 126.746094 470.988281 L 140.691406 484.933594 L 144.460938 481.164062 Z M 33.917969 344.246094 L 126.746094 251.414062 L 126.746094 437.074219 Z M 33.917969 344.246094 " fill-opacity="1" fill-rule="nonzero"/></g></g></g><g clip-path="url(#51dcf7e2ef)"><g clip-path="url(#2ea3264bdc)"><g clip-path="url(#820c41c92d)"><path fill="#ae8330" d="M 219.703125 132.082031 L 238.542969 132.082031 L 216.6875 153.9375 L 220.457031 157.707031 L 246.082031 132.082031 L 442.292969 132.082031 L 467.917969 157.707031 L 471.683594 153.9375 L 449.828125 132.082031 L 468.671875 132.082031 L 481.105469 144.515625 L 484.875 140.75 L 470.933594 126.804688 L 444.550781 126.804688 L 344.1875 26.4375 L 243.820312 126.804688 L 217.441406 126.804688 L 203.5 140.75 L 207.265625 144.515625 Z M 344.1875 33.976562 L 437.015625 126.804688 L 251.355469 126.804688 Z M 344.1875 33.976562 " fill-opacity="1" fill-rule="nonzero"/></g></g></g><g clip-path="url(#1945cba211)"><g clip-path="url(#e599f581a3)"><g clip-path="url(#6b4da4bd6b)"><path fill="#ae8330" d="M 481.105469 144.515625 L 484.875 140.75 L 547.683594 203.554688 L 543.914062 207.324219 Z M 481.105469 144.515625 " fill-opacity="1" fill-rule="nonzero"/></g></g></g><g clip-path="url(#d967286489)"><g clip-path="url(#f5bdffeda6)"><g clip-path="url(#c413e2ab37)"><path fill="#ae8330" d="M 467.917969 157.707031 L 471.683594 153.9375 L 534.492188 216.746094 L 530.722656 220.515625 Z M 467.917969 157.707031 " fill-opacity="1" fill-rule="nonzero"/></g></g></g><g clip-path="url(#1781634e13)"><g clip-path="url(#94dcd5a5c4)"><g clip-path="url(#002a7ad576)"><path fill="#ae8330" d="M 153.878906 216.746094 L 216.6875 153.9375 L 220.457031 157.707031 L 157.648438 220.515625 Z M 153.878906 216.746094 " fill-opacity="1" fill-rule="nonzero"/></g></g></g><g clip-path="url(#599fdeebb9)"><g clip-path="url(#1ddc349cf9)"><g clip-path="url(#52e50dcd52)"><path fill="#ae8330" d="M 140.691406 203.554688 L 203.5 140.75 L 207.265625 144.515625 L 144.460938 207.324219 Z M 140.691406 203.554688 " fill-opacity="1" fill-rule="nonzero"/></g></g></g><g fill="#ae8330" fill-opacity="1"><g transform="translate(243.066352, 453.993868)"><g><path d="M 11.378906 -178.738281 C 11.078125 -174.847656 13.472656 -173.648438 14.070312 -177.839844 C 21.554688 -229.933594 111.675781 -230.234375 192.808594 -229.636719 C 182.03125 -178.738281 174.847656 -140.414062 164.964844 -95.207031 C 160.476562 -95.207031 155.984375 -95.207031 151.492188 -94.90625 L 153.289062 -97.902344 C 170.054688 -132.332031 101.792969 -135.925781 55.988281 -96.703125 C -7.183594 -42.8125 26.046875 42.8125 74.550781 44.910156 C 131.132812 48.5 159.578125 -22.453125 176.042969 -94.011719 C 200.894531 -94.308594 222.152344 -95.507812 223.347656 -105.984375 C 223.648438 -108.679688 221.851562 -109.277344 220.953125 -105.386719 C 219.15625 -97.304688 199.695312 -96.40625 176.644531 -95.804688 C 189.816406 -153.890625 197.300781 -207.480469 202.089844 -230.234375 C 235.324219 -232.328125 262.867188 -254.484375 249.097656 -268.257812 C 238.316406 -279.035156 204.785156 -279.035156 193.109375 -230.832031 C 94.011719 -233.828125 15.269531 -226.941406 11.378906 -178.738281 Z M 150.59375 -93.410156 C 155.085938 -93.410156 159.875 -93.710938 164.667969 -93.710938 C 148.800781 -19.761719 126.644531 43.710938 75.746094 43.113281 C 29.042969 42.515625 -6.886719 -41.316406 57.484375 -96.105469 C 103.292969 -135.027344 173.347656 -129.9375 149.398438 -94.90625 C 120.058594 -95.507812 96.40625 -82.332031 102.09375 -70.65625 C 106.585938 -61.675781 140.714844 -79.9375 150.59375 -93.410156 Z M 202.691406 -231.730469 C 214.066406 -274.84375 239.515625 -275.144531 247 -267.957031 C 261.371094 -253.886719 231.730469 -233.828125 202.691406 -231.730469 Z M 103.589844 -71.253906 C 99.398438 -80.835938 120.957031 -94.308594 148.800781 -93.410156 C 139.519531 -80.835938 106.585938 -64.070312 103.589844 -71.253906 Z M 103.589844 -71.253906 "/></g></g></g><g fill="#ae8330" fill-opacity="1"><g transform="translate(158.730314, 453.993868)"><g><path d="M 262.867188 -177.242188 C 238.617188 -137.722656 219.753906 -102.992188 199.398438 -73.351562 C 168.257812 -71.554688 135.027344 -71.855469 108.980469 -67.960938 C 113.769531 -90.714844 96.40625 -110.476562 66.765625 -95.507812 C -11.378906 -55.988281 -0.898438 42.8125 52.09375 54.488281 C 96.703125 64.371094 152.390625 -0.597656 200.292969 -71.253906 C 220.953125 -72.453125 237.121094 -74.25 252.988281 -78.742188 C 250.890625 -10.179688 256.878906 31.734375 274.84375 42.214844 C 284.125 47.605469 297.296875 35.027344 301.488281 9.878906 C 302.089844 6.289062 297.597656 8.382812 299.695312 10.179688 C 298.195312 19.761719 288.316406 47.902344 275.742188 40.117188 C 261.96875 31.734375 261.371094 -17.363281 264.363281 -81.734375 C 278.734375 -87.421875 291.609375 -92.214844 294.902344 -105.984375 C 295.203125 -109.578125 290.710938 -107.484375 292.808594 -105.386719 C 289.515625 -93.410156 277.539062 -89.21875 264.363281 -83.832031 C 266.160156 -121.253906 269.753906 -159.875 275.742188 -188.917969 C 312.867188 -237.121094 329.933594 -271.25 312.269531 -273.644531 C 293.40625 -276.339844 274.84375 -240.714844 262.867188 -177.242188 Z M 52.394531 52.992188 C 4.492188 43.414062 -10.179688 -51.195312 65.269531 -92.8125 C 94.308594 -108.679688 112.871094 -90.417969 107.484375 -67.664062 C 46.105469 -58.082031 57.484375 -34.132812 63.769531 -31.136719 C 72.453125 -26.945312 99.699219 -32.933594 108.679688 -66.464844 C 134.128906 -70.359375 167.0625 -69.757812 197.898438 -71.253906 C 137.421875 16.765625 91.316406 60.777344 52.394531 52.992188 Z M 262.269531 -173.648438 C 257.777344 -147.902344 254.484375 -114.070312 253.289062 -81.136719 C 237.71875 -76.644531 221.851562 -74.550781 201.792969 -73.351562 C 225.445312 -108.378906 244.304688 -144.609375 262.269531 -173.648438 Z M 276.339844 -192.808594 C 287.121094 -246.699219 300.890625 -273.046875 311.667969 -272.148438 C 328.734375 -270.953125 308.375 -234.125 276.339844 -192.808594 Z M 64.070312 -32.335938 C 55.6875 -38.621094 58.082031 -58.980469 107.183594 -66.167969 C 97.003906 -32.933594 68.5625 -29.042969 64.070312 -32.335938 Z M 64.070312 -32.335938 "/></g></g></g></svg>